#!OML:ASF E:\acrobat2\Project_11_07_03\Capture day 1\Session 1\Acrobat.ASF
:FULLY-SPECIFIED
:DEGREES
305
root 5.47819 18.1714 27.3435 -0.757707 -85.4202 364.836
lowerback -2.18793 0.656907 0.724651
upperback -1.01081 0.852583 -1.87899
thorax 0.23003 0.414033 -2.31222
lowerneck -1.16088 -3.19699 0.229179
upperneck 3.06203 -4.43689 4.11135
head 1.23545 -2.17026 1.1704
rclavicle 1.73937e-015 -1.55052e-014
rhumerus -40.5071 -5.51119 -79.3728
rradius 37.7924
rwrist -9.50256
rhand -10.0617 -39.7443
rfingers 7.12502
rthumb 15.9242 -69.1096
lclavicle 1.73937e-015 -1.55052e-014
lhumerus -40.611 22.7463 61.5002
lradius 11.7337
lwrist -21.7674
lhand 4.95585 -9.72918
lfingers 7.12502
lthumb 30.3279 17.7982
rfemur 5.17736 6.79066 11.0813
rtibia 2.27995
rfoot -18.2537 -24.5742
rtoes 5.1844
lfemur 183.73 180.622 165.008
ltibia -0.366437
lfoot -6.08661 -1.66949
ltoes 39.0448
306
root 5.49718 18.2063 27.3128 5.31954 -85.1072 358.82
lowerback -2.07277 0.659414 1.13848
upperback -1.07192 0.849672 -1.66758
thorax 0.105548 0.411404 -2.32946
lowerneck -1.47805 -3.1753 0.239069
upperneck 3.36928 -4.4132 3.85099
head 1.37895 -2.15275 1.08104
rclavicle -3.64024e-015 -1.47101e-014
rhumerus -40.8716 -4.94545 -79.4823
rradius 38.2142
rwrist -10.04
rhand -9.42835 -39.4822
rfingers 7.12502
rthumb 16.5341 -68.7978
lclavicle -3.64024e-015 -1.47101e-014
lhumerus -41.2296 22.4028 61.9236
lradius 12.5791
lwrist -19.441
lhand 5.00816 -9.59864
lfingers 7.12502
lthumb 30.3778 17.9196
rfemur 5.14752 6.66601 11.6975
rtibia 2.05222
rfoot -16.7298 -25.2195
rtoes 0.142914
lfemur 183.414 181.059 165.6
ltibia -0.189653
lfoot -6.34271 -1.10191
ltoes 39.7838
307
root 5.51443 18.2365 27.2782 6.69728 -84.9026 357.525
lowerback -2.09797 0.693148 1.13023
upperback -1.07211 0.895264 -1.56877
thorax 0.120044 0.434947 -2.22194
lowerneck -1.5949 -3.08536 0.233172
upperneck 3.42557 -4.29644 3.85442
head 1.41501 -2.09217 1.08331
rclavicle -2.06239e-015 1.98785e-014
rhumerus -41.2809 -4.52698 -79.5873
rradius 38.7955
rwrist -10.1567
rhand -8.52586 -39.1748
rfingers 7.12502
rthumb 17.4028 -68.4157
lclavicle -2.06239e-015 1.98785e-014
lhumerus -41.1045 19.1733 64.5299
lradius 13.774
lwrist -14.1148
lhand 5.27001 -9.99223
lfingers 7.12502
lthumb 30.6275 17.4796
rfemur 5.01344 6.54043 11.8582
rtibia 2.24607
rfoot -17.725 -24.2349
rtoes 5.96375
lfemur 183.105 181.257 165.801
ltibia 0.0203371
lfoot -6.53787 -0.733604
ltoes 40.1945
308
root 5.53013 18.2581 27.2379 7.72462 -84.7236 356.563
lowerback -2.17407 0.760023 1.06281
upperback -1.05378 0.985844 -1.49813
thorax 0.183354 0.481548 -2.1082
lowerneck -1.40519 -2.9733 0.135444
upperneck 3.18228 -4.14409 4.14742
head 1.31264 -2.01932 1.19857
rclavicle -1.51201e-014 -5.56597e-015
rhumerus -41.392 -3.77765 -79.8428
rradius 38.8971
rwrist -10.3267
rhand -7.74529 -38.823
rfingers 7.12502
rthumb 18.1539 -67.9959
lclavicle -1.51201e-014 -5.56597e-015
lhumerus -40.9832 15.5837 67.2937
lradius 15.1047
lwrist -8.95151
lhand 5.81951 -10.6083
lfingers 7.12502
lthumb 31.1513 16.7642
rfemur 4.92443 6.75961 12.1088
rtibia 2.36854
rfoot -18.8171 -23.6698
rtoes 11.0017
lfemur 182.828 181.294 166.056
ltibia 0.170921
lfoot -6.39668 -0.447025
ltoes 39.7542
309
root 5.54638 18.2672 27.1898 10.8324 -84.5089 353.501
lowerback -2.24228 0.809431 1.10009
upperback -1.04251 1.05139 -1.33581
thorax 0.233672 0.515577 -1.9598
lowerneck -1.22165 -2.90926 -0.129819
upperneck 2.97301 -4.05866 4.59062
head 1.23185 -1.97999 1.38877
rclavicle -9.30561e-015 1.03368e-014
rhumerus -41.2482 -2.64944 -80.2247
rradius 38.6546
rwrist -10.5448
rhand -6.9515 -38.5472
rfingers 7.12502
rthumb 18.9175 -67.6473
lclavicle -9.30561e-015 1.03368e-014
lhumerus -40.9428 11.9577 70.0018
lradius 16.5247
lwrist -3.99477
lhand 6.48207 -11.3457
lfingers 7.12502
lthumb 31.7826 15.9036
rfemur 4.9018 7.23229 12.7177
rtibia 2.29526
rfoot -19.4576 -23.6827
rtoes 12.7687
lfemur 182.607 181.312 166.654
ltibia 0.220317
lfoot -6.05889 -0.37015
ltoes 39.5698
310
root 5.56465 18.2641 27.1424 11.7836 -84.3153 352.595
lowerback -2.34139 0.788833 0.928934
upperback -0.997113 1.02747 -1.19103
thorax 0.329067 0.505659 -1.71394
lowerneck -1.21008 -2.86263 -0.301975
upperneck 2.92654 -3.99734 4.78448
head 1.22319 -1.94981 1.48139
rclavicle 2.04872e-014 -1.19271e-014
rhumerus -40.9801 -1.81721 -80.5875
rradius 38.264
rwrist -10.0887
rhand -6.28351 -38.0285
rfingers 7.12502
rthumb 19.5598 -67.0645
lclavicle 2.04872e-014 -1.19271e-014
lhumerus -41.057 8.96245 72.3004
lradius 18.1139
lwrist 0.0196274
lhand 7.14987 -12.123
lfingers 7.12502
lthumb 32.4183 14.9982
rfemur 4.89305 7.31693 13.0267
rtibia 2.179
rfoot -19.441 -23.8389
rtoes 11.0547
lfemur 182.441 181.415 167.01
ltibia 0.215395
lfoot -5.93373 -0.576433
ltoes 39.711
311
root 5.58524 18.2475 27.0957 7.31846 -84.1705 357.059
lowerback -2.3934 0.790354 0.331311
upperback -0.926362 1.04264 -1.286
thorax 0.422402 0.514597 -1.47421
lowerneck -1.11624 -2.86716 -0.392486
upperneck 2.88443 -4.00647 4.97781
head 1.20159 -1.95543 1.55993
rclavicle -1.98785e-016 1.98785e-015
rhumerus -41.1117 -1.58851 -80.8951
rradius 38.6629
rwrist -9.2107
rhand -5.93719 -37.9647
rfingers 7.12502
rthumb 19.8927 -66.9666
lclavicle -1.98785e-016 1.98785e-015
lhumerus -41.1411 6.22286 74.207
lradius 19.7782
lwrist 2.98114
lhand 7.97308 -12.6521
lfingers 7.12502
lthumb 33.2014 14.3054
rfemur 5.12923 7.50767 12.6998
rtibia 1.71501
rfoot -19.4392 -24.3332
rtoes 9.07011
lfemur 182.382 181.626 166.654
ltibia 0.168727
lfoot -6.02979 -0.851662
ltoes 39.762
312
root 5.60741 18.2158 27.0439 1.61462 -84.0247 362.754
lowerback -2.36586 0.892198 -0.315281
upperback -0.91674 1.19101 -1.54033
thorax 0.413238 0.587969 -1.36857
lowerneck -0.91474 -2.93359 -0.442229
upperneck 2.88339 -4.109 5.34711
head 1.18135 -2.00742 1.68789
rclavicle 1.61513e-014 -1.98785e-015
rhumerus -41.0956 -1.54967 -81.2651
rradius 38.432
rwrist -8.65794
rhand -5.80242 -38.0566
rfingers 7.12502
rthumb 20.0223 -67.045
lclavicle 1.61513e-014 -1.98785e-015
lhumerus -41.0903 3.26151 75.8847
lradius 21.2655
lwrist 5.40047
lhand 8.74607 -13.0044
lfingers 7.12502
lthumb 33.9361 13.7935
rfemur 5.46284 7.65399 12.3041
rtibia 1.18148
rfoot -20.07 -24.5073
rtoes 9.20533
lfemur 182.409 181.897 166.081
ltibia -0.00443166
lfoot -6.24653 -1.00168
ltoes 38.5496
313
root 5.62983 18.1709 26.99 -1.40487 -83.8652 365.744
lowerback -2.30765 0.967528 -0.723969
upperback -0.921306 1.29778 -1.69806
thorax 0.372796 0.640621 -1.29941
lowerneck -0.897203 -3.01008 -0.347323
upperneck 3.01436 -4.22647 5.46441
head 1.22449 -2.06278 1.707
rclavicle 1.39149e-014 2.78299e-015
rhumerus -40.8667 -1.81313 -81.4734
rradius 37.9067
rwrist -7.89459
rhand -5.55976 -38.1689
rfingers 7.12502
rthumb 20.2555 -67.1327
lclavicle 1.39149e-014 2.78299e-015
lhumerus -41.0174 0.350709 77.4642
lradius 22.7262
lwrist 7.53502
lhand 9.09688 -13.3447
lfingers 7.12502
lthumb 34.2693 13.3789
rfemur 5.94996 8.63739 12.4874
rtibia 0.589419
rfoot -22.0761 -24.8051
rtoes 11.9806
lfemur 182.553 182.198 165.786
ltibia -0.372583
lfoot -6.60296 -1.04173
ltoes 36.2199
